<?xml version="1.0" encoding="utf-8"?>
<!-- Generator: Adobe Illustrator 27.0.1, SVG Export Plug-In . SVG Version: 6.00 Build 0)  -->
<svg version="1.1" id="Layer_1" xmlns="http://www.w3.org/2000/svg" xmlns:xlink="http://www.w3.org/1999/xlink" x="0px" y="0px"
	 viewBox="0 0 656 222" style="enable-background:new 0 0 656 222;" xml:space="preserve">
<style type="text/css">
	.st0{fill:#054FD2;}
	.st1{fill:#EE2A5C;}
	.st2{opacity:0.4;fill:#054FD2;enable-background:new    ;}
</style>
<g>
	<path class="st0" d="M89.3,67.1c-7.2,0-14,1.7-20,4.8v-2.5H45.6V182h23.8v-32.6c6,3.1,12.8,4.8,20,4.8c24.2,0,43.8-19.5,43.8-43.5
		C133.1,86.6,113.5,67.1,89.3,67.1z M89.3,130.6c-11.1,0-20-8.9-20-19.9c0-11,9-19.9,20-19.9c11.1,0,20,8.9,20,19.9
		C109.3,121.6,100.4,130.6,89.3,130.6z"/>
	<path class="st0" d="M147.4,139.2c8,9.2,19.9,15,33.1,15c24.2,0,43.8-19.5,43.8-43.5c0-24-19.5-43.2-43.4-43.5l0.2,23.6
		c10.8,0.3,19.5,9.1,19.5,19.9c0,10.8-9,19.9-20,19.9c-5.9,0-11.3-2.6-14.9-6.7L147.4,139.2L147.4,139.2z"/>
	<path class="st0" d="M250.6,72v-2.6h-23.8v83.2h23.8v-42h0.2c0-11,9-19.9,20-19.9V67.1C263.5,67.1,256.6,68.9,250.6,72L250.6,72z"
		/>
	<path class="st0" d="M335.7,67.1h-19.3V40h-23.8v27.1h-18.8V91h18.8v61.7h23.8V91h19.3V67.1z"/>
	<path class="st0" d="M398.3,69.4v3c-6.2-3.4-13.4-5.3-20.9-5.3c-24.2,0-43.8,19.5-43.8,43.5c0,24,19.6,43.5,43.8,43.5
		c7.6,0,14.7-1.9,20.9-5.3v3.8H422V69.4H398.3z M377.4,130.6c-11.1,0-20-8.9-20-19.9c0-11,9-19.9,20-19.9c11.1,0,20,8.9,20,19.9
		C397.4,121.6,388.4,130.6,377.4,130.6z"/>
	<path class="st0" d="M475.9,67.1c-7.2,0-14,1.7-20,4.8V40h-23.8v112.7h23.8v-3.3c6,3.1,12.8,4.8,20,4.8c24.2,0,43.8-19.5,43.8-43.5
		C519.7,86.6,500.1,67.1,475.9,67.1L475.9,67.1z M475.9,130.6c-11.1,0-20-8.9-20-19.9c0-11,9-19.9,20-19.9s20,8.9,20,19.9
		C495.9,121.6,486.9,130.6,475.9,130.6z"/>
	<path class="st0" d="M565.2,67.1c-24.2,0-43.8,19.5-43.8,43.5c0,24,19.6,43.5,43.8,43.5c24.2,0,43.8-19.5,43.8-43.5
		C609,86.6,589.4,67.1,565.2,67.1z M565.2,130.6c-11.1,0-20-8.9-20-19.9c0-11,9-19.9,20-19.9c11.1,0,20,8.9,20,19.9
		C585.3,121.6,576.3,130.6,565.2,130.6z"/>
	<path class="st1" d="M166.7,89.1c3.2-2.4,7.4-3.8,11.6-3.9l-0.7-23.4c-10,0.1-18.1,3.2-25.4,8.9L166.7,89.1z"/>
	<path class="st2" d="M164,122.4c-2.6-3.4-4.1-7.6-4.1-12.2c0-6.1,2.8-11.5,7.1-15.1l-5.9-7.4l-8.8-11.1
		c-9.8,7.9-16.1,19.9-16.2,33.5c-0.1,10.4,3.5,20.1,9.6,27.6L164,122.4L164,122.4z"/>
</g>
</svg>
