<?xml version="1.0" encoding="UTF-8" standalone="no" ?>
<!DOCTYPE svg PUBLIC "-//W3C//DTD SVG 1.1//EN" "http://www.w3.org/Graphics/SVG/1.1/DTD/svg11.dtd">
<svg xmlns="http://www.w3.org/2000/svg" xmlns:xlink="http://www.w3.org/1999/xlink" version="1.1" width="892.91339" height="208.70078" viewBox="0 0 1080 1080" xml:space="preserve">
<desc>Created with Fabric.js 5.2.4</desc>
<defs>
</defs>
<g transform="matrix(1 0 0 1 540 540)" id="cf33ea12-4ed1-4182-b7f5-43fa2f173aba"  >
<rect style="stroke: none; stroke-width: 1; stroke-dasharray: none; stroke-linecap: butt; stroke-dashoffset: 0; stroke-linejoin: miter; stroke-miterlimit: 4; fill: rgb(255,255,255); fill-rule: nonzero; opacity: 1; visibility: hidden;" vector-effect="non-scaling-stroke"  x="-540" y="-540" rx="0" ry="0" width="1080" height="1080" />
</g>
<g transform="matrix(1 0 0 1 540 540)" id="fb4ebfdd-65fc-43ee-b428-8df1018fe26d"  >
</g>
<g transform="matrix(1 0 0 1 540 540)"  >
<g style="" vector-effect="non-scaling-stroke"   >
		<g transform="matrix(4.95 0 0 4.95 -239.24 35.78)" id="path11291"  >
<path style="stroke: none; stroke-width: 1; stroke-dasharray: none; stroke-linecap: butt; stroke-dashoffset: 0; stroke-linejoin: miter; stroke-miterlimit: 4; fill: rgb(87,192,53); fill-rule: nonzero; opacity: 1;" vector-effect="non-scaling-stroke"  transform=" translate(-376.65, -622.37)" d="M 393.40471 629.05764 L 393.40471 635.50014 L 359.89596 609.23139 L 368.11971 609.23139 L 393.40471 629.05764 z" stroke-linecap="round" />
</g>
		<g transform="matrix(4.95 0 0 4.95 -139.36 35.78)" id="path11293"  >
<path style="stroke: none; stroke-width: 1; stroke-dasharray: none; stroke-linecap: butt; stroke-dashoffset: 0; stroke-linejoin: miter; stroke-miterlimit: 4; fill: rgb(250,182,10); fill-rule: nonzero; opacity: 1;" vector-effect="non-scaling-stroke"  transform=" translate(-396.82, -622.37)" d="M 413.57346 629.05764 L 413.57346 635.50014 L 380.06721 609.23139 L 388.28346 609.23139 L 413.57346 629.05764 z" stroke-linecap="round" />
</g>
		<g transform="matrix(4.95 0 0 4.95 -339.1 35.78)" id="path11295"  >
<path style="stroke: none; stroke-width: 1; stroke-dasharray: none; stroke-linecap: butt; stroke-dashoffset: 0; stroke-linejoin: miter; stroke-miterlimit: 4; fill: rgb(88,78,75); fill-rule: nonzero; opacity: 1;" vector-effect="non-scaling-stroke"  transform=" translate(-356.48, -622.37)" d="M 373.23846 629.05764 L 373.23846 635.50014 L 339.72970999999995 609.23139 L 347.94971 609.23139 L 373.23846 629.05764 z" stroke-linecap="round" />
</g>
		<g transform="matrix(4.95 0 0 4.95 -39.5 35.78)" id="path11297"  >
<path style="stroke: none; stroke-width: 1; stroke-dasharray: none; stroke-linecap: butt; stroke-dashoffset: 0; stroke-linejoin: miter; stroke-miterlimit: 4; fill: rgb(242,92,25); fill-rule: nonzero; opacity: 1;" vector-effect="non-scaling-stroke"  transform=" translate(-416.99, -622.37)" d="M 433.74346 629.05764 L 433.74346 635.50014 L 400.23096000000004 609.23139 L 408.45346000000006 609.23139 L 433.7434600000001 629.05764 z" stroke-linecap="round" />
</g>
		<g transform="matrix(4.95 0 0 4.95 60.37 35.78)" id="path11299"  >
<path style="stroke: none; stroke-width: 1; stroke-dasharray: none; stroke-linecap: butt; stroke-dashoffset: 0; stroke-linejoin: miter; stroke-miterlimit: 4; fill: rgb(217,25,32); fill-rule: nonzero; opacity: 1;" vector-effect="non-scaling-stroke"  transform=" translate(-437.16, -622.37)" d="M 453.90971 629.05764 L 453.90971 635.50014 L 420.40221 609.23139 L 428.61721 609.23139 L 453.90971 629.05764 z" stroke-linecap="round" />
</g>
		<g transform="matrix(4.95 0 0 4.95 160.22 35.78)" id="path11301"  >
<path style="stroke: none; stroke-width: 1; stroke-dasharray: none; stroke-linecap: butt; stroke-dashoffset: 0; stroke-linejoin: miter; stroke-miterlimit: 4; fill: rgb(0,117,130); fill-rule: nonzero; opacity: 1;" vector-effect="non-scaling-stroke"  transform=" translate(-457.32, -622.37)" d="M 474.07471 629.05764 L 474.07471 635.50014 L 440.56595999999996 609.23139 L 448.78846 609.23139 L 474.07471 629.05764 z" stroke-linecap="round" />
</g>
		<g transform="matrix(4.95 0 0 4.95 260.09 35.78)" id="path11303"  >
<path style="stroke: none; stroke-width: 1; stroke-dasharray: none; stroke-linecap: butt; stroke-dashoffset: 0; stroke-linejoin: miter; stroke-miterlimit: 4; fill: rgb(238,28,153); fill-rule: nonzero; opacity: 1;" vector-effect="non-scaling-stroke"  transform=" translate(-477.49, -622.37)" d="M 494.24221 629.05764 L 494.24221 635.50014 L 460.73596 609.23139 L 468.95596 609.23139 L 494.24221 629.05764 z" stroke-linecap="round" />
</g>
		<g transform="matrix(4.95 0 0 4.95 359.96 35.78)" id="path11305"  >
<path style="stroke: none; stroke-width: 1; stroke-dasharray: none; stroke-linecap: butt; stroke-dashoffset: 0; stroke-linejoin: miter; stroke-miterlimit: 4; fill: rgb(64,151,217); fill-rule: nonzero; opacity: 1;" vector-effect="non-scaling-stroke"  transform=" translate(-497.66, -622.37)" d="M 514.40846 635.50014 L 480.90346 609.23139 L 489.12095999999997 609.23139 L 514.40846 629.05764 L 514.40846 635.50014 z" stroke-linecap="round" />
</g>
		<g transform="matrix(4.95 0 0 4.95 -432.55 -77.38)" id="path11307"  >
<path style="stroke: none; stroke-width: 1; stroke-dasharray: none; stroke-linecap: butt; stroke-dashoffset: 0; stroke-linejoin: miter; stroke-miterlimit: 4; fill: rgb(35,31,32); fill-rule: nonzero; opacity: 1;" vector-effect="non-scaling-stroke"  transform=" translate(-337.61, -599.51)" d="M 338.47596 596.13389 L 339.70721 596.13389 L 339.70721 600.73514 C 339.70721 602.19639 339.23220999999995 602.89014 337.62221 602.89014 C 335.99345999999997 602.89014 335.51971 602.19639 335.51971 600.73514 L 335.51971 596.13389 L 336.75095999999996 596.13389 L 336.75095999999996 600.63014 C 336.75095999999996 601.26389 336.79465999999996 601.89764 337.63095999999996 601.89764 C 338.43220999999994 601.89764 338.47596 601.2638900000001 338.47596 600.63014 L 338.47596 596.13389 z" stroke-linecap="round" />
</g>
		<g transform="matrix(4.95 0 0 4.95 -404.69 -77.77)" id="path11309"  >
<path style="stroke: none; stroke-width: 1; stroke-dasharray: none; stroke-linecap: butt; stroke-dashoffset: 0; stroke-linejoin: miter; stroke-miterlimit: 4; fill: rgb(35,31,32); fill-rule: nonzero; opacity: 1;" vector-effect="non-scaling-stroke"  transform=" translate(-343.24, -599.43)" d="M 344.09846 596.13389 L 345.32971 596.13389 L 345.32971 602.73264 L 344.04470999999995 602.73264 L 343.08595999999994 600.38389 C 342.76095999999995 599.6001399999999 342.49720999999994 598.8001399999999 342.20595999999995 597.76139 L 342.18845999999996 597.76139 C 342.23346 598.30639 342.28596 598.97639 342.32095999999996 599.64389 C 342.35596 600.30389 342.38215999999994 600.9638900000001 342.38215999999994 601.49139 L 342.38215999999994 602.7326400000001 L 341.1496599999999 602.7326400000001 L 341.1496599999999 596.1338900000001 L 342.42590999999993 596.1338900000001 L 343.3859099999999 598.5363900000001 C 343.7009099999999 599.3013900000001 343.9646599999999 600.0838900000001 344.2659099999999 601.1576400000001 L 344.2822099999999 601.1576400000001 C 344.23840999999993 600.5588900000001 344.19470999999993 599.9176400000001 344.1597099999999 599.2838900000002 C 344.1235099999999 598.6501400000002 344.0984099999999 598.0163900000001 344.0984099999999 597.4276400000001 L 344.0984099999999 596.1338900000001 z" stroke-linecap="round" />
</g>
		<g transform="matrix(4.95 0 0 4.95 -384.06 -77.77)" id="path11311"  >
<path style="stroke: none; stroke-width: 1; stroke-dasharray: none; stroke-linecap: butt; stroke-dashoffset: 0; stroke-linejoin: miter; stroke-miterlimit: 4; fill: rgb(35,31,32); fill-rule: nonzero; opacity: 1;" vector-effect="non-scaling-stroke"  transform=" translate(-347.41, -599.43)" d="M 346.78971 596.13389 L 348.02096 596.13389 L 348.02096 602.73264 L 346.78971 602.73264 L 346.78971 596.13389 z" stroke-linecap="round" />
</g>
		<g transform="matrix(4.95 0 0 4.95 -364.6 -77.77)" id="path11313"  >
<path style="stroke: none; stroke-width: 1; stroke-dasharray: none; stroke-linecap: butt; stroke-dashoffset: 0; stroke-linejoin: miter; stroke-miterlimit: 4; fill: rgb(35,31,32); fill-rule: nonzero; opacity: 1;" vector-effect="non-scaling-stroke"  transform=" translate(-351.33, -599.43)" d="M 352.28096 596.13389 L 353.59971 596.13389 L 352.17596000000003 602.73264 L 350.52971 602.73264 L 349.06846 596.13389 L 350.38846 596.13389 L 351.16346 600.36514 C 351.23346 600.73514 351.27720999999997 601.11389 351.31221 601.49139 C 351.33101 601.66764 351.36471 601.8526400000001 351.36471 602.03764 L 351.38351 602.03764 C 351.38351 601.8526400000001 351.41851 601.66764 351.43601 601.49139 C 351.47101000000004 601.11389 351.51471000000004 600.73514 351.58601 600.36514 L 352.28101 596.13389 z" stroke-linecap="round" />
</g>
		<g transform="matrix(4.95 0 0 4.95 -339.88 -77.77)" id="path11315"  >
<path style="stroke: none; stroke-width: 1; stroke-dasharray: none; stroke-linecap: butt; stroke-dashoffset: 0; stroke-linejoin: miter; stroke-miterlimit: 4; fill: rgb(35,31,32); fill-rule: nonzero; opacity: 1;" vector-effect="non-scaling-stroke"  transform=" translate(-356.33, -599.43)" d="M 354.59346 602.73264 L 354.59346 596.13389 L 358.06095999999997 596.13389 L 358.06095999999997 597.1013899999999 L 355.82595999999995 597.1013899999999 L 355.82595999999995 598.76514 L 357.8847099999999 598.76514 L 357.8847099999999 599.73264 L 355.82595999999995 599.73264 L 355.82595999999995 601.76514 L 358.06095999999997 601.76514 L 358.06095999999997 602.73264 L 354.59346 602.73264 z" stroke-linecap="round" />
</g>
		<g transform="matrix(4.95 0 0 4.95 -314.41 -77.77)" id="path11317"  >
<path style="stroke: none; stroke-width: 1; stroke-dasharray: none; stroke-linecap: butt; stroke-dashoffset: 0; stroke-linejoin: miter; stroke-miterlimit: 4; fill: rgb(35,31,32); fill-rule: nonzero; opacity: 1;" vector-effect="non-scaling-stroke"  transform=" translate(-361.47, -599.43)" d="M 360.49846 598.92264 L 361.46596 598.92264 C 361.87095999999997 598.89634 362.18721 598.63264 362.18721 597.97264 C 362.18721 597.23389 361.87846 597.11014 361.41221 597.1013899999999 L 360.49846 597.1013899999999 L 360.49846 598.9226399999999 z M 360.49846 599.89139 L 360.49846 602.73264 L 359.26721000000003 602.73264 L 359.26721000000003 596.13389 L 361.59846000000005 596.13389 C 362.6622100000001 596.13389 363.47221 596.50389 363.47221 597.71764 C 363.47221 598.43889 363.28596000000005 599.1951399999999 362.45971000000003 599.3101399999999 L 362.45971000000003 599.32764 C 363.18971000000005 599.4251399999999 363.40971 599.89139 363.40971 600.5238899999999 C 363.40971 600.7976399999999 363.37601 602.41639 363.67471 602.60889 L 363.67471 602.73264 L 362.31971 602.73264 C 362.16971 602.3101399999999 362.19596 601.5013899999999 362.18721 601.06139 C 362.17821 600.65639 362.18721 600.10264 361.76596 599.97889 C 361.43096 599.88139 361.06971 599.89139 360.71846 599.89139 L 360.49845999999997 599.89139 z" stroke-linecap="round" />
</g>
		<g transform="matrix(4.95 0 0 4.95 -289.4 -77.77)" id="path11319"  >
<path style="stroke: none; stroke-width: 1; stroke-dasharray: none; stroke-linecap: butt; stroke-dashoffset: 0; stroke-linejoin: miter; stroke-miterlimit: 4; fill: rgb(35,31,32); fill-rule: nonzero; opacity: 1;" vector-effect="non-scaling-stroke"  transform=" translate(-366.52, -599.43)" d="M 364.60721 601.74639 L 366.72721 597.6551400000001 C 366.83221000000003 597.4626400000001 366.92096000000004 597.2601400000001 367.07096 597.07514 C 366.91221 597.10144 366.75346 597.10144 366.59596 597.10144 L 364.74721 597.10144 L 364.74721 596.13394 L 368.35471 596.13394 L 368.35471 597.1189400000001 L 366.23471 601.21019 C 366.12971 601.40394 366.04221 601.60644 365.89096 601.79144 C 366.04971 601.76514 366.20846 601.76514 366.36596000000003 601.76514 L 368.43471000000005 601.76514 L 368.43471000000005 602.73264 L 364.60721000000007 602.73264 L 364.60721000000007 601.7463899999999 z" stroke-linecap="round" />
</g>
		<g transform="matrix(4.95 0 0 4.95 -271.21 -77.77)" id="path11321"  >
<path style="stroke: none; stroke-width: 1; stroke-dasharray: none; stroke-linecap: butt; stroke-dashoffset: 0; stroke-linejoin: miter; stroke-miterlimit: 4; fill: rgb(35,31,32); fill-rule: nonzero; opacity: 1;" vector-effect="non-scaling-stroke"  transform=" translate(-370.19, -599.43)" d="M 369.57846 596.13389 L 370.80971 596.13389 L 370.80971 602.73264 L 369.57846 602.73264 L 369.57846 596.13389 z" stroke-linecap="round" />
</g>
		<g transform="matrix(4.95 0 0 4.95 -252.97 -77.77)" id="path11323"  >
<path style="stroke: none; stroke-width: 1; stroke-dasharray: none; stroke-linecap: butt; stroke-dashoffset: 0; stroke-linejoin: miter; stroke-miterlimit: 4; fill: rgb(35,31,32); fill-rule: nonzero; opacity: 1;" vector-effect="non-scaling-stroke"  transform=" translate(-373.88, -599.43)" d="M 371.82346 596.13389 L 375.93096 596.13389 L 375.93096 597.1013899999999 L 374.49721000000005 597.1013899999999 L 374.49721000000005 602.73264 L 373.26596000000006 602.73264 L 373.26596000000006 597.1013899999999 L 371.82346000000007 597.1013899999999 L 371.82346000000007 596.13389 z" stroke-linecap="round" />
</g>
		<g transform="matrix(4.95 0 0 4.95 -231.12 -77.77)" id="path11325"  >
<path style="stroke: none; stroke-width: 1; stroke-dasharray: none; stroke-linecap: butt; stroke-dashoffset: 0; stroke-linejoin: miter; stroke-miterlimit: 4; fill: rgb(35,31,32); fill-rule: nonzero; opacity: 1;" vector-effect="non-scaling-stroke"  transform=" translate(-378.29, -599.43)" d="M 377.76096 600.09264 L 378.81721 600.09264 L 378.48346 598.21889 C 378.42226 597.91139 378.39466 597.61139 378.35971 597.30389 C 378.35071 597.1551400000001 378.33341 597.00514 378.31601 596.86389 L 378.29851 596.86389 C 378.28101000000004 597.00514 378.26351 597.15514 378.25481 597.30389 C 378.21981 597.61139 378.19231 597.91139 378.13106000000005 598.21889 L 377.76106000000004 600.09264 z M 375.92346000000003 602.73264 L 377.49846 596.13389 L 379.16096000000005 596.13389 L 380.65596000000005 602.73264 L 379.33596000000006 602.73264 L 379.01096000000007 601.06139 L 377.5684600000001 601.06139 L 377.24221000000006 602.73264 L 375.92346000000003 602.73264 z" stroke-linecap="round" />
</g>
		<g transform="matrix(4.95 0 0 4.95 -197.08 -77.38)" id="path11327"  >
<path style="stroke: none; stroke-width: 1; stroke-dasharray: none; stroke-linecap: butt; stroke-dashoffset: 0; stroke-linejoin: miter; stroke-miterlimit: 4; fill: rgb(35,31,32); fill-rule: nonzero; opacity: 1;" vector-effect="non-scaling-stroke"  transform=" translate(-385.17, -599.51)" d="M 384.74721 600.63889 L 384.74721 601.4563899999999 C 384.75621 601.6938899999999 384.84341 601.8976399999999 385.14346 601.8976399999999 C 385.58221000000003 601.8976399999999 385.59221 601.5626399999999 385.59221 601.20139 L 385.59221 596.13389 L 386.82346 596.13389 L 386.82346 600.94639 C 386.82346 601.39514 386.85846000000004 602.0376399999999 386.46221 602.4601399999999 C 386.10221 602.8463899999999 385.55721000000005 602.8901399999999 384.95846 602.8901399999999 C 384.51846 602.8901399999999 384.02596 602.7238899999999 383.69221 602.2126399999999 C 383.54221 601.9763899999998 383.48096 601.2463899999999 383.51596 600.6388899999998 L 384.74721 600.6388899999998 z" stroke-linecap="round" />
</g>
		<g transform="matrix(4.95 0 0 4.95 -177.72 -64.31)" id="path11329"  >
<path style="stroke: none; stroke-width: 1; stroke-dasharray: none; stroke-linecap: butt; stroke-dashoffset: 0; stroke-linejoin: miter; stroke-miterlimit: 4; fill: rgb(35,31,32); fill-rule: nonzero; opacity: 1;" vector-effect="non-scaling-stroke"  transform=" translate(-389.08, -602.15)" d="M 388.49471 601.57139 L 389.65596 601.57139 L 389.65596 602.73264 L 388.49471 602.73264 L 388.49471 601.57139 z" stroke-linecap="round" />
</g>
		<g transform="matrix(4.95 0 0 4.95 -151.79 -77.77)" id="path11331"  >
<path style="stroke: none; stroke-width: 1; stroke-dasharray: none; stroke-linecap: butt; stroke-dashoffset: 0; stroke-linejoin: miter; stroke-miterlimit: 4; fill: rgb(35,31,32); fill-rule: nonzero; opacity: 1;" vector-effect="non-scaling-stroke"  transform=" translate(-394.31, -599.43)" d="M 392.57721 602.73264 L 392.57721 596.13389 L 396.04346 596.13389 L 396.04346 597.1013899999999 L 393.80845999999997 597.1013899999999 L 393.80845999999997 598.76514 L 395.86845999999997 598.76514 L 395.86845999999997 599.73264 L 393.80845999999997 599.73264 L 393.80845999999997 601.76514 L 396.04346 601.76514 L 396.04346 602.73264 L 392.57721 602.73264 z" stroke-linecap="round" />
</g>
		<g transform="matrix(4.95 0 0 4.95 -132.84 -64.31)" id="path11333"  >
<path style="stroke: none; stroke-width: 1; stroke-dasharray: none; stroke-linecap: butt; stroke-dashoffset: 0; stroke-linejoin: miter; stroke-miterlimit: 4; fill: rgb(35,31,32); fill-rule: nonzero; opacity: 1;" vector-effect="non-scaling-stroke"  transform=" translate(-398.14, -602.15)" d="M 397.55721 601.57139 L 398.71846 601.57139 L 398.71846 602.73264 L 397.55721 602.73264 L 397.55721 601.57139 z" stroke-linecap="round" />
</g>
		<g transform="matrix(4.95 0 0 4.95 -103.53 -77.77)" id="path11335"  >
<path style="stroke: none; stroke-width: 1; stroke-dasharray: none; stroke-linecap: butt; stroke-dashoffset: 0; stroke-linejoin: miter; stroke-miterlimit: 4; fill: rgb(35,31,32); fill-rule: nonzero; opacity: 1;" vector-effect="non-scaling-stroke"  transform=" translate(-404.06, -599.43)" d="M 403.25971 599.00264 L 403.91971 599.00264 C 404.45596 599.00264 404.81721 598.77389 404.81721 597.9726400000001 C 404.81721 597.21639 404.51846 597.10139 403.82221 597.10139 L 403.25971 597.10139 L 403.25971 599.00264 z M 402.02846 602.7326400000001 L 402.02846 596.1338900000001 L 404.54346 596.1338900000001 C 405.72346 596.1338900000001 406.08471 597.0838900000001 406.08471 598.00764 C 406.08471 598.5713900000001 405.93471 599.20389 405.46846 599.57389 C 405.08096 599.88139 404.56221 599.97889 404.08720999999997 599.97014 L 403.25971 599.97014 L 403.25971 602.7326400000001 L 402.02846 602.7326400000001 z" stroke-linecap="round" />
</g>
		<g transform="matrix(4.95 0 0 4.95 -77.72 -77.38)" id="path11337"  >
<path style="stroke: none; stroke-width: 1; stroke-dasharray: none; stroke-linecap: butt; stroke-dashoffset: 0; stroke-linejoin: miter; stroke-miterlimit: 4; fill: rgb(35,31,32); fill-rule: nonzero; opacity: 1;" vector-effect="non-scaling-stroke"  transform=" translate(-409.27, -599.51)" d="M 410.13096 596.13389 L 411.36221 596.13389 L 411.36221 600.73514 C 411.36221 602.19639 410.88721 602.89014 409.27721 602.89014 C 407.64971 602.89014 407.17471 602.19639 407.17471 600.73514 L 407.17471 596.13389 L 408.40596 596.13389 L 408.40596 600.63014 C 408.40596 601.26389 408.44966 601.89764 409.28596 601.89764 C 410.08720999999997 601.89764 410.13096 601.2638900000001 410.13096 600.63014 L 410.13096 596.13389 z" stroke-linecap="round" />
</g>
		<g transform="matrix(4.95 0 0 4.95 -49.38 -77.77)" id="path11339"  >
<path style="stroke: none; stroke-width: 1; stroke-dasharray: none; stroke-linecap: butt; stroke-dashoffset: 0; stroke-linejoin: miter; stroke-miterlimit: 4; fill: rgb(35,31,32); fill-rule: nonzero; opacity: 1;" vector-effect="non-scaling-stroke"  transform=" translate(-414.99, -599.43)" d="M 414.01971 598.92264 L 414.98846 598.92264 C 415.39221 598.89634 415.70971 598.63264 415.70971 597.97264 C 415.70971 597.23389 415.40096 597.11014 414.93471 597.1013899999999 L 414.01971 597.1013899999999 L 414.01971 598.9226399999999 z M 414.01971 599.89139 L 414.01971 602.73264 L 412.78846 602.73264 L 412.78846 596.13389 L 415.11971 596.13389 C 416.18471 596.13389 416.99345999999997 596.50389 416.99345999999997 597.71764 C 416.99345999999997 598.43889 416.80845999999997 599.1951399999999 415.98220999999995 599.3101399999999 L 415.98220999999995 599.32764 C 416.71220999999997 599.4251399999999 416.93095999999997 599.89139 416.93095999999997 600.5238899999999 C 416.93095999999997 600.7976399999999 416.89716 602.41639 417.19595999999996 602.60889 L 417.19595999999996 602.73264 L 415.84095999999994 602.73264 C 415.69095999999996 602.3101399999999 415.71845999999994 601.5013899999999 415.7097099999999 601.06139 C 415.6997099999999 600.65639 415.7097099999999 600.10264 415.2872099999999 599.97889 C 414.9522099999999 599.88139 414.5909599999999 599.89139 414.2397099999999 599.89139 L 414.01970999999986 599.89139 z" stroke-linecap="round" />
</g>
		<g transform="matrix(4.95 0 0 4.95 -21.89 -77.77)" id="path11341"  >
<path style="stroke: none; stroke-width: 1; stroke-dasharray: none; stroke-linecap: butt; stroke-dashoffset: 0; stroke-linejoin: miter; stroke-miterlimit: 4; fill: rgb(35,31,32); fill-rule: nonzero; opacity: 1;" vector-effect="non-scaling-stroke"  transform=" translate(-420.54, -599.43)" d="M 418.43721 602.73264 L 418.43721 596.13389 L 419.66846 596.13389 L 419.66846 599.0638899999999 L 419.68726 599.0638899999999 C 419.87976 598.5438899999999 420.19725999999997 597.9638899999999 420.46101 597.4801399999999 L 421.18226 596.1338899999998 L 422.57225999999997 596.1338899999998 L 420.94350999999995 598.9663899999998 L 422.6510099999999 602.7326399999998 L 421.26100999999994 602.7326399999998 L 420.09975999999995 600.1276399999998 L 419.66850999999997 600.8413899999998 L 419.66850999999997 602.7326399999998 L 418.43726 602.7326399999998 z" stroke-linecap="round" />
</g>
		<g transform="matrix(4.95 0 0 4.95 2.33 -77.77)" id="path11343"  >
<path style="stroke: none; stroke-width: 1; stroke-dasharray: none; stroke-linecap: butt; stroke-dashoffset: 0; stroke-linejoin: miter; stroke-miterlimit: 4; fill: rgb(35,31,32); fill-rule: nonzero; opacity: 1;" vector-effect="non-scaling-stroke"  transform=" translate(-425.43, -599.43)" d="M 425.13221 597.86639 C 425.26346 598.19264 425.36845999999997 598.52639 425.42096 598.8788900000001 L 425.43976 598.8788900000001 C 425.52725999999996 598.3688900000001 425.69476 597.9988900000001 425.84351 597.6288900000001 L 426.43350999999996 596.1338900000001 L 427.77975999999995 596.1338900000001 L 426.03851 599.92514 L 426.03851 602.7326400000001 L 424.80600999999996 602.7326400000001 L 424.80600999999996 599.92514 L 423.08975999999996 596.1338900000001 L 424.43600999999995 596.1338900000001 L 425.13226 597.86639 z" stroke-linecap="round" />
</g>
		<g transform="matrix(4.95 0 0 4.95 29 -77.77)" id="path11345"  >
<path style="stroke: none; stroke-width: 1; stroke-dasharray: none; stroke-linecap: butt; stroke-dashoffset: 0; stroke-linejoin: miter; stroke-miterlimit: 4; fill: rgb(35,31,32); fill-rule: nonzero; opacity: 1;" vector-effect="non-scaling-stroke"  transform=" translate(-430.82, -599.43)" d="M 431.67721 596.13389 L 432.90971 596.13389 L 432.90971 602.73264 L 431.62346 602.73264 L 430.66596000000004 600.38389 C 430.33971 599.6001399999999 430.07596000000007 598.8001399999999 429.78596000000005 597.76139 L 429.76846000000006 597.76139 C 429.81216000000006 598.30639 429.8646600000001 598.97639 429.8997100000001 599.64389 C 429.9359100000001 600.30389 429.96091000000007 600.9638900000001 429.96091000000007 601.49139 L 429.96091000000007 602.7326400000001 L 428.7296600000001 602.7326400000001 L 428.7296600000001 596.1338900000001 L 430.00466000000006 596.1338900000001 L 430.96466000000004 598.5363900000001 C 431.28091000000006 599.3013900000001 431.54466 600.0838900000001 431.84466000000003 601.1576400000001 L 431.86216 601.1576400000001 C 431.81846 600.5588900000001 431.77336 599.9176400000001 431.73841000000004 599.2838900000002 C 431.70341 598.6501400000002 431.67721000000006 598.0163900000001 431.67721000000006 597.4276400000001 L 431.67721000000006 596.1338900000001 z" stroke-linecap="round" />
</g>
		<g transform="matrix(4.95 0 0 4.95 54.94 -81.13)" id="path11347"  >
<path style="stroke: none; stroke-width: 1; stroke-dasharray: none; stroke-linecap: butt; stroke-dashoffset: 0; stroke-linejoin: miter; stroke-miterlimit: 4; fill: rgb(35,31,32); fill-rule: nonzero; opacity: 1;" vector-effect="non-scaling-stroke"  transform=" translate(-436.06, -598.76)" d="M 436.74471 595.76389 L 435.64471 595.76389 L 434.65096 594.7788899999999 L 435.63596 594.7788899999999 L 436.19846 595.21889 L 436.75346 594.7788899999999 L 437.75721000000004 594.7788899999999 L 436.74471000000005 595.76389 z M 434.32471 602.73264 L 434.32471 596.13389 L 437.79220999999995 596.13389 L 437.79220999999995 597.1013899999999 L 435.55720999999994 597.1013899999999 L 435.55720999999994 598.76514 L 437.6159599999999 598.76514 L 437.6159599999999 599.73264 L 435.55720999999994 599.73264 L 435.55720999999994 601.76514 L 437.79220999999995 601.76514 L 437.79220999999995 602.73264 L 434.32471 602.73264 z" stroke-linecap="round" />
</g>
		<g transform="matrix(4.95 0 0 4.95 90.9 -77.77)" id="path11349"  >
<path style="stroke: none; stroke-width: 1; stroke-dasharray: none; stroke-linecap: butt; stroke-dashoffset: 0; stroke-linejoin: miter; stroke-miterlimit: 4; fill: rgb(35,31,32); fill-rule: nonzero; opacity: 1;" vector-effect="non-scaling-stroke"  transform=" translate(-443.32, -599.43)" d="M 444.26846 596.13389 L 445.58721 596.13389 L 444.16346000000004 602.73264 L 442.51721000000003 602.73264 L 441.05596 596.13389 L 442.37596 596.13389 L 443.15096 600.36514 C 443.22096 600.73514 443.26471 601.11389 443.29971 601.49139 C 443.31841000000003 601.66764 443.35221 601.8526400000001 443.35221 602.03764 L 443.37091000000004 602.03764 C 443.37091000000004 601.8526400000001 443.40591000000006 601.66764 443.42341000000005 601.49139 C 443.4584100000001 601.11389 443.5021100000001 600.73514 443.57341 600.36514 L 444.26841 596.13389 z" stroke-linecap="round" />
</g>
		<g transform="matrix(4.95 0 0 4.95 129.74 -80.74)" id="path11351"  >
<path style="stroke: none; stroke-width: 1; stroke-dasharray: none; stroke-linecap: butt; stroke-dashoffset: 0; stroke-linejoin: miter; stroke-miterlimit: 4; fill: rgb(35,31,32); fill-rule: nonzero; opacity: 1;" vector-effect="non-scaling-stroke"  transform=" translate(-451.17, -598.83)" d="M 451.45596 594.77889 L 452.81846 594.77889 L 451.51721000000003 595.7638900000001 L 450.62846 595.7638900000001 L 451.45596 594.77889 z M 452.02846 596.1338900000001 L 453.25971 596.1338900000001 L 453.25971 600.7351400000001 C 453.25971 602.1963900000001 452.78470999999996 602.8901400000001 451.17471 602.8901400000001 C 449.54596 602.8901400000001 449.07096 602.1963900000001 449.07096 600.7351400000001 L 449.07096 596.1338900000001 L 450.30346000000003 596.1338900000001 L 450.30346000000003 600.6301400000001 C 450.30346000000003 601.2638900000001 450.34726 601.8976400000001 451.18346 601.8976400000001 C 451.98346000000004 601.8976400000001 452.02846000000005 601.2638900000002 452.02846000000005 600.6301400000001 L 452.02846000000005 596.1338900000001 z" stroke-linecap="round" />
</g>
		<g transform="matrix(4.95 0 0 4.95 156.43 -77.78)" id="path11353"  >
<path style="stroke: none; stroke-width: 1; stroke-dasharray: none; stroke-linecap: butt; stroke-dashoffset: 0; stroke-linejoin: miter; stroke-miterlimit: 4; fill: rgb(35,31,32); fill-rule: nonzero; opacity: 1;" vector-effect="non-scaling-stroke"  transform=" translate(-456.55, -599.43)" d="M 457.21846 598.14014 C 457.22846 597.5501399999999 457.17466 596.97014 456.49721 596.97014 C 456.08471 596.97014 455.81971 597.13639 455.81971 597.58514 C 455.81971 598.0876400000001 456.13721 598.2801400000001 456.52346 598.52639 C 456.92846 598.78264 457.67596 599.27514 458.01971 599.60889 C 458.44095999999996 600.02264 458.57345999999995 600.4188899999999 458.57345999999995 600.99014 C 458.57345999999995 602.24014 457.74720999999994 602.89014 456.5409599999999 602.89014 C 455.0634599999999 602.89014 454.5347099999999 602.06389 454.5347099999999 600.88514 L 454.5347099999999 600.40139 L 455.7672099999999 600.40139 L 455.7672099999999 600.78764 C 455.74090999999993 601.43014 455.93470999999994 601.89764 456.5409599999999 601.89764 C 457.0609599999999 601.89764 457.3059599999999 601.6238900000001 457.3059599999999 601.12264 C 457.3059599999999 600.73514 457.1309599999999 600.47139 456.81470999999993 600.25139 C 456.17220999999995 599.75014 455.3709599999999 599.3888900000001 454.86970999999994 598.72889 C 454.66720999999995 598.4301399999999 454.5534599999999 598.0701399999999 454.5534599999999 597.71764 C 454.5534599999999 596.5913899999999 455.1859599999999 595.97514 456.4884599999999 595.97514 C 458.4497099999999 595.97514 458.3972099999999 597.48889 458.40595999999994 598.14014 L 457.21845999999994 598.14014 z" stroke-linecap="round" />
</g>
		<g transform="matrix(4.95 0 0 4.95 180.7 -77.77)" id="path11355"  >
<path style="stroke: none; stroke-width: 1; stroke-dasharray: none; stroke-linecap: butt; stroke-dashoffset: 0; stroke-linejoin: miter; stroke-miterlimit: 4; fill: rgb(35,31,32); fill-rule: nonzero; opacity: 1;" vector-effect="non-scaling-stroke"  transform=" translate(-461.45, -599.43)" d="M 459.40096 596.13389 L 463.50846 596.13389 L 463.50846 597.1013899999999 L 462.07596 597.1013899999999 L 462.07596 602.73264 L 460.84346 602.73264 L 460.84346 597.1013899999999 L 459.40096 597.1013899999999 L 459.40096 596.13389 z" stroke-linecap="round" />
</g>
		<g transform="matrix(4.95 0 0 4.95 201.56 -81.13)" id="path11357"  >
<path style="stroke: none; stroke-width: 1; stroke-dasharray: none; stroke-linecap: butt; stroke-dashoffset: 0; stroke-linejoin: miter; stroke-miterlimit: 4; fill: rgb(35,31,32); fill-rule: nonzero; opacity: 1;" vector-effect="non-scaling-stroke"  transform=" translate(-465.67, -598.76)" d="M 465.46346 594.77889 L 466.82596 594.77889 L 465.52346 595.7638900000001 L 464.63596 595.7638900000001 L 465.46346 594.77889 z M 464.51221 596.1338900000001 L 465.74345999999997 596.1338900000001 L 465.74345999999997 602.7326400000001 L 464.51221 602.7326400000001 L 464.51221 596.1338900000001 z" stroke-linecap="round" />
</g>
		<g transform="matrix(4.95 0 0 4.95 231.67 -77.77)" id="path11359"  >
<path style="stroke: none; stroke-width: 1; stroke-dasharray: none; stroke-linecap: butt; stroke-dashoffset: 0; stroke-linejoin: miter; stroke-miterlimit: 4; fill: rgb(35,31,32); fill-rule: nonzero; opacity: 1;" vector-effect="non-scaling-stroke"  transform=" translate(-471.75, -599.43)" d="M 472.60721 596.13389 L 473.83971 596.13389 L 473.83971 602.73264 L 472.55346000000003 602.73264 L 471.59596000000005 600.38389 C 471.26971000000003 599.6001399999999 471.0059600000001 598.8001399999999 470.71596000000005 597.76139 L 470.69846000000007 597.76139 C 470.74216000000007 598.30639 470.7946600000001 598.97639 470.83096000000006 599.64389 C 470.8659600000001 600.30389 470.89096000000006 600.9638900000001 470.89096000000006 601.49139 L 470.89096000000006 602.7326400000001 L 469.6597100000001 602.7326400000001 L 469.6597100000001 596.1338900000001 L 470.9359600000001 596.1338900000001 L 471.8947100000001 598.5363900000001 C 472.2109600000001 599.3013900000001 472.4747100000001 600.0838900000001 472.7747100000001 601.1576400000001 L 472.79221000000007 601.1576400000001 C 472.7484100000001 600.5588900000001 472.7047100000001 599.9176400000001 472.6684600000001 599.2838900000002 C 472.63346000000007 598.6501400000002 472.6071600000001 598.0163900000001 472.6071600000001 597.4276400000001 L 472.6071600000001 596.1338900000001 z" stroke-linecap="round" />
</g>
		<g transform="matrix(4.95 0 0 4.95 258.36 -77.77)" id="path11361"  >
<path style="stroke: none; stroke-width: 1; stroke-dasharray: none; stroke-linecap: butt; stroke-dashoffset: 0; stroke-linejoin: miter; stroke-miterlimit: 4; fill: rgb(35,31,32); fill-rule: nonzero; opacity: 1;" vector-effect="non-scaling-stroke"  transform=" translate(-477.14, -599.43)" d="M 476.61096 600.09264 L 477.66596 600.09264 L 477.33221 598.21889 C 477.27090999999996 597.91139 477.24341 597.61139 477.20846 597.30389 C 477.19946 597.1551400000001 477.18346 597.00514 477.16476 596.86389 L 477.14726 596.86389 C 477.12976000000003 597.00514 477.11226 597.15514 477.10356 597.30389 C 477.06856 597.61139 477.04106 597.91139 476.97981000000004 598.21889 L 476.61106000000007 600.09264 z M 474.77221 602.73264 L 476.34720999999996 596.13389 L 478.00971 596.13389 L 479.50471 602.73264 L 478.18471 602.73264 L 477.86096 601.06139 L 476.41720999999995 601.06139 L 476.09220999999997 602.73264 L 474.77221 602.73264 z" stroke-linecap="round" />
</g>
		<g transform="matrix(4.95 0 0 4.95 285.28 -77.77)" id="path11363"  >
<path style="stroke: none; stroke-width: 1; stroke-dasharray: none; stroke-linecap: butt; stroke-dashoffset: 0; stroke-linejoin: miter; stroke-miterlimit: 4; fill: rgb(35,31,32); fill-rule: nonzero; opacity: 1;" vector-effect="non-scaling-stroke"  transform=" translate(-482.58, -599.43)" d="M 482.24096 601.76514 C 483.34096 601.76514 483.41096 601.18389 483.41096 599.27514 C 483.41096 597.71764 483.25221 597.1013899999999 482.51346 597.1013899999999 L 481.70471000000003 597.1013899999999 L 481.70471000000003 601.76514 L 482.24096000000003 601.76514 z M 480.47220999999996 602.73264 L 480.47220999999996 596.13389 L 483.04096 596.13389 C 483.34096 596.13389 483.93971 596.26639 484.31845999999996 596.8813899999999 C 484.59845999999993 597.3388899999999 484.67846 598.0701399999999 484.67846 599.1601399999998 C 484.67846 600.4626399999999 484.67846 601.9676399999998 483.66596 602.5563899999999 C 483.39346 602.7151399999999 483.05971 602.7326399999998 482.75221 602.7326399999998 L 480.47221 602.7326399999998 z" stroke-linecap="round" />
</g>
		<g transform="matrix(4.95 0 0 4.95 323.45 -77.77)" id="path11365"  >
<path style="stroke: none; stroke-width: 1; stroke-dasharray: none; stroke-linecap: butt; stroke-dashoffset: 0; stroke-linejoin: miter; stroke-miterlimit: 4; fill: rgb(35,31,32); fill-rule: nonzero; opacity: 1;" vector-effect="non-scaling-stroke"  transform=" translate(-490.28, -599.43)" d="M 488.52346 602.73264 L 488.52346 596.13389 L 489.75471 596.13389 L 489.75471 601.76514 L 492.04221 601.76514 L 492.04221 602.73264 L 488.52346 602.73264 z" stroke-linecap="round" />
</g>
		<g transform="matrix(4.95 0 0 4.95 346.93 -77.77)" id="path11367"  >
<path style="stroke: none; stroke-width: 1; stroke-dasharray: none; stroke-linecap: butt; stroke-dashoffset: 0; stroke-linejoin: miter; stroke-miterlimit: 4; fill: rgb(35,31,32); fill-rule: nonzero; opacity: 1;" vector-effect="non-scaling-stroke"  transform=" translate(-495.03, -599.43)" d="M 494.49721 600.09264 L 495.55346 600.09264 L 495.21846 598.21889 C 495.15716 597.91139 495.13096 597.61139 495.09596 597.30389 C 495.08696 597.1551400000001 495.06976 597.00514 495.05226 596.86389 L 495.03476 596.86389 C 495.01606 597.00514 494.99976 597.15514 494.99106 597.30389 C 494.95486 597.61139 494.92856 597.91139 494.86731000000003 598.21889 L 494.49731 600.09264 z M 492.65846 602.73264 L 494.23346 596.13389 L 495.89596 596.13389 L 497.39221 602.73264 L 496.07221 602.73264 L 495.74721 601.06139 L 494.30471 601.06139 L 493.97846 602.73264 L 492.65846 602.73264 z" stroke-linecap="round" />
</g>
		<g transform="matrix(4.95 0 0 4.95 372.74 -77.77)" id="path11369"  >
<path style="stroke: none; stroke-width: 1; stroke-dasharray: none; stroke-linecap: butt; stroke-dashoffset: 0; stroke-linejoin: miter; stroke-miterlimit: 4; fill: rgb(35,31,32); fill-rule: nonzero; opacity: 1;" vector-effect="non-scaling-stroke"  transform=" translate(-500.24, -599.43)" d="M 499.79346 601.76514 C 500.04971 601.76514 500.31221 601.79144 500.53220999999996 601.69394 C 500.86720999999994 601.54519 500.91096 601.11394 500.91096 600.77894 C 500.91096 600.0664400000001 500.77096 599.76769 500.00471 599.76769 L 499.53096 599.76769 L 499.53096 601.76519 L 499.79346 601.76519 z M 499.75845999999996 598.8001399999999 C 500.05720999999994 598.8001399999999 500.44470999999993 598.81764 500.63845999999995 598.57139 C 500.75220999999993 598.4038899999999 500.77095999999995 598.1751399999999 500.77095999999995 597.85889 C 500.77095999999995 597.36639 500.66470999999996 597.11889 500.10220999999996 597.1013899999999 L 499.53095999999994 597.1013899999999 L 499.53095999999994 598.8001399999999 L 499.75845999999996 598.8001399999999 z M 498.29720999999995 602.73264 L 498.29720999999995 596.13389 L 500.28595999999993 596.13389 C 500.81470999999993 596.13389 501.33345999999995 596.1688899999999 501.68470999999994 596.6176399999999 C 501.96720999999997 596.97764 502.01095999999995 597.3563899999999 502.01095999999995 597.8051399999999 C 502.01095999999995 598.3776399999999 501.88721 598.9401399999999 501.21845999999994 599.18764 L 501.21845999999994 599.20394 C 501.91470999999996 599.30144 502.1784599999999 599.88144 502.1784599999999 600.73519 C 502.1784599999999 601.0089399999999 502.16095999999993 601.28019 502.0896599999999 601.5451899999999 C 501.8259099999999 602.38019 501.35090999999994 602.7326899999999 500.47090999999995 602.7326899999999 L 498.29715999999996 602.7326899999999 z" stroke-linecap="round" />
</g>
		<g transform="matrix(4.95 0 0 4.95 397.16 -77.77)" id="path11371"  >
<path style="stroke: none; stroke-width: 1; stroke-dasharray: none; stroke-linecap: butt; stroke-dashoffset: 0; stroke-linejoin: miter; stroke-miterlimit: 4; fill: rgb(35,31,32); fill-rule: nonzero; opacity: 1;" vector-effect="non-scaling-stroke"  transform=" translate(-505.17, -599.43)" d="M 503.43596 602.73264 L 503.43596 596.13389 L 506.90221 596.13389 L 506.90221 597.1013899999999 L 504.66721 597.1013899999999 L 504.66721 598.76514 L 506.72596 598.76514 L 506.72596 599.73264 L 504.66721 599.73264 L 504.66721 601.76514 L 506.90221 601.76514 L 506.90221 602.73264 L 503.43596 602.73264 z" stroke-linecap="round" />
</g>
		<g transform="matrix(4.95 0 0 4.95 425.81 -77.77)" id="path11373"  >
<path style="stroke: none; stroke-width: 1; stroke-dasharray: none; stroke-linecap: butt; stroke-dashoffset: 0; stroke-linejoin: miter; stroke-miterlimit: 4; fill: rgb(35,31,32); fill-rule: nonzero; opacity: 1;" vector-effect="non-scaling-stroke"  transform=" translate(-510.95, -599.43)" d="M 509.34846 602.73264 L 508.11721 602.73264 L 508.11721 596.13389 L 510.07846 596.13389 L 510.73846000000003 599.1951399999999 C 510.84346000000005 599.69764 510.91471 600.20764 510.96721 600.71764 L 510.98471 600.71764 C 511.04601 600.06639 511.09096 599.62639 511.17846000000003 599.1951399999999 L 511.83846000000005 596.13389 L 513.7922100000001 596.13389 L 513.7922100000001 602.73264 L 512.5597100000001 602.73264 L 512.5597100000001 600.65639 C 512.5597100000001 599.34514 512.5860100000001 598.03389 512.6647100000001 596.72264 L 512.6484100000001 596.72264 L 511.32841000000013 602.73264 L 510.57966000000016 602.73264 L 509.2859100000002 596.72264 L 509.2421100000002 596.72264 C 509.3221100000002 598.0338899999999 509.3483600000002 599.3451399999999 509.3483600000002 600.65639 L 509.3483600000002 602.73264 z" stroke-linecap="round" />
</g>
</g>
</g>
</svg>